<?xml version="1.0" encoding="UTF-8" standalone="no"?>
<!-- Created with Inkscape (http://www.inkscape.org/) -->

<svg
   width="20"
   height="20"
   viewBox="0 0 5.2916666 5.2916666"
   version="1.1"
   id="svg36730"
   inkscape:version="1.1.1 (3bf5ae0d25, 2021-09-20)"
   sodipodi:docname="conradish.svg"
   xmlns:inkscape="http://www.inkscape.org/namespaces/inkscape"
   xmlns:sodipodi="http://sodipodi.sourceforge.net/DTD/sodipodi-0.dtd"
   xmlns="http://www.w3.org/2000/svg"
   xmlns:svg="http://www.w3.org/2000/svg">
  <sodipodi:namedview
     id="namedview36732"
     pagecolor="#ffffff"
     bordercolor="#666666"
     borderopacity="1.0"
     inkscape:pageshadow="2"
     inkscape:pageopacity="0.0"
     inkscape:pagecheckerboard="0"
     inkscape:document-units="mm"
     showgrid="true"
     inkscape:zoom="32"
     inkscape:cx="22.078125"
     inkscape:cy="12.421875"
     inkscape:window-width="2560"
     inkscape:window-height="1017"
     inkscape:window-x="-8"
     inkscape:window-y="-8"
     inkscape:window-maximized="1"
     inkscape:current-layer="g933"
     units="px">
    <inkscape:grid
       type="xygrid"
       id="grid1062" />
  </sodipodi:namedview>
  <defs
     id="defs36727" />
  <g
     inkscape:label="Layer 1"
     inkscape:groupmode="layer"
     id="layer1"
     transform="translate(-48.389246,-32.825298)">
    <path
       style="fill:#000000;stroke-width:0.264583"
       id="path37292"
       d="" />
    <path
       style="fill:#000000;stroke-width:0.264583"
       id="path36932"
       d="" />
    <g
       id="g62617"
       transform="translate(-39.406866,-91.887904)">
      <g
         id="g933"
         transform="matrix(0.14197225,0,0,0.14197225,75.587492,107.23694)">
        <path
           style="fill:#51dcb1;fill-opacity:0.996078;stroke:#fe687c;stroke-width:0"
           d="m 114.56543,144.73216 c -1.63224,-0.58078 -3.55422,-1.94265 -4.61599,-3.03966 -0.35243,-0.79947 0.27071,-3.68716 3.99797,-5.55079 3.72725,-1.86362 5.59088,0 5.78436,3.08326 0.12002,1.91257 0.71409,4.37115 -1.91676,5.49096 -1.13638,0.48369 -1.92386,0.52209 -3.24958,0.0162 z"
           id="path44848"
           sodipodi:nodetypes="cccsscc" />
        <path
           style="fill:#51dcb1;fill-opacity:0.996078;stroke:#fe687c;stroke-width:0"
           d="m 104.22385,140.84184 c -2.53946,-2.79996 -5.827604,-3.80491 -5.795682,-9.02528 0.096,-2.99185 2.927782,-5.92508 5.973702,-5.49761 3.01236,0.22229 5.28308,1.52815 5.19833,6.50035 -0.86267,3.75126 -2.24379,5.5738 -5.37635,8.02254 z"
           id="path43358"
           sodipodi:nodetypes="ccccc" />
        <path
           id="path38059"
           style="fill:#fe687c;stroke:#fe687c;stroke-width:0"
           d="m 98.208583,140.96235 c -1.248185,-0.3486 -2.170998,0.69862 -2.786407,1.61702 -0.712578,1.06299 -0.754944,2.46952 -0.316202,3.66651 0.498225,1.35927 1.525225,2.53271 2.709831,3.376 0.99012,0.76887 2.118522,1.26991 3.200815,1.81171 1.36247,0.68206 3.15092,1.44244 4.42707,1.63698 1.20066,0.37339 0.81384,-1.82996 0.98332,-2.85861 0.43154,-2.54759 -1.12104,-5.38104 -2.8903,-7.02621 -1.36244,-1.17702 -3.33666,-1.95528 -5.144073,-2.22226 z"
           sodipodi:nodetypes="scssscsscs" />
        <path
           id="path52223"
           style="fill:#000000;fill-opacity:0.23;stroke:#fe687c;stroke-width:0"
           d="m 106.71823,148.61171 c -1.32123,-0.92704 -2.31585,-0.57083 -2.88752,0.10905 -0.55837,1.3141 -0.99369,2.56194 -1.41704,3.29202 -0.85691,1.11479 -0.92424,1.24797 -1.64701,1.8677 -0.64286,0.62034 -2.002882,0.93795 -2.169877,1.89252 0.290548,0.55825 1.898657,0.62169 2.541427,0.55353 1.1978,-0.27592 2.32202,-0.84312 3.25216,-1.64668 0.37345,-0.29445 0.73619,-0.6077 0.98496,-1.01985 0.77579,-0.86918 2.49395,-3.56438 1.3429,-5.04828 z"
           sodipodi:nodetypes="cccsccsccc" />
        <path
           style="fill:#444b54;fill-opacity:1;stroke-width:0.264583"
           d="m 90.675586,158.29529 c -1.957528,-1.09549 0.465416,-2.93711 3.335545,-3.0774 0.74174,-0.0363 1.600645,0.30301 2.318504,0.48909 10.849745,2.81236 14.000935,-10.78996 3.338188,-14.40951 -5.964231,-2.0246 -10.665236,4.55643 -7.664732,10.73002 0.930292,1.91409 0.902257,2.59856 -0.106433,2.59856 -2.253145,0 -3.615666,-6.3588 -2.157449,-10.17008 2.131577,-5.57121 7.272637,-6.74149 13.760111,-3.38438 0.10132,0.0524 0.4476,-0.41848 0.7695,-1.04646 0.91882,-1.7925 1.32288,-2.83913 -0.0678,-5.58385 -1.01173,-1.99689 -1.24223,-2.95117 -0.12113,-3.09857 1.06724,-0.14032 1.91791,2.41671 2.50202,4.3339 l 0.47399,1.55577 0.93456,-1.29119 c 2.31129,-3.19326 1.83781,-6.57009 -1.17942,-8.4116 -5.28728,-3.22699 -10.918598,3.51498 -6.914792,8.26362 1.329592,1.57694 0.122382,2.59429 -1.119963,1.60113 -4.955079,-3.96118 -1.232349,-12.51221 5.200215,-12.49402 6.7659,0.0191 9.612,7.32452 4.98934,12.80671 -1.32815,1.57511 -1.3669,1.5245 1.16222,1.51776 3.90878,-0.0104 7.05885,0.3177 6.41188,1.95551 -0.25385,0.64263 -0.98712,0.64601 -2.14906,0.42668 -1.4932,-0.28187 -4.32896,-0.68124 -4.32896,-0.44886 0,0.3514 4.04229,3.06773 4.70504,3.29611 3.99878,1.37799 6.6377,-5.27143 3.04166,-7.67374 -1.42464,-0.95172 -5.35939,0.56388 -5.72275,1.61423 -0.20086,0.58063 -1.34304,0.43054 -1.54204,-0.19648 -0.38986,-1.22832 2.8672,-3.59337 5.12994,-3.58398 5.15837,0.0214 7.55528,6.61303 4.05077,10.35983 -2.02971,2.17004 -5.3273,2.33202 -9.45821,-1.07518 -2.8025,-2.31151 -3.55146,-2.61809 -4.57235,-1.8716 -0.47701,0.3488 -0.47902,0.39501 -0.0431,0.99218 1.91725,2.62623 2.38735,4.32572 2.36374,6.23071 -0.0132,1.06731 -0.26679,2.76585 -0.83462,3.88641 -1.92772,3.80419 -5.94623,5.46697 -10.123735,4.49387 -2.692751,-0.62724 -4.019878,-0.60732 -4.773304,0.0716 -0.887144,0.79946 -1.09909,0.87767 -1.607462,0.59317 z"
           id="path37748"
           sodipodi:nodetypes="cssssssssssscsssscssssssssssssscsssscc" />
      </g>
    </g>
  </g>
</svg>
