<?xml version="1.0" encoding="UTF-8" standalone="no"?>
<!-- Created with Inkscape (http://www.inkscape.org/) -->

<svg
   width="128"
   height="128"
   viewBox="0 0 33.866668 33.866666"
   version="1.1"
   id="svg62772"
   inkscape:version="1.1.1 (3bf5ae0d25, 2021-09-20)"
   sodipodi:docname="document.svg"
   xmlns:inkscape="http://www.inkscape.org/namespaces/inkscape"
   xmlns:sodipodi="http://sodipodi.sourceforge.net/DTD/sodipodi-0.dtd"
   xmlns="http://www.w3.org/2000/svg"
   xmlns:svg="http://www.w3.org/2000/svg">
  <sodipodi:namedview
     id="namedview62774"
     pagecolor="#ffffff"
     bordercolor="#666666"
     borderopacity="1.0"
     inkscape:pageshadow="2"
     inkscape:pageopacity="0.0"
     inkscape:pagecheckerboard="0"
     inkscape:document-units="mm"
     showgrid="false"
     units="px"
     inkscape:zoom="1.4823793"
     inkscape:cx="102.87515"
     inkscape:cy="97.478425"
     inkscape:window-width="2560"
     inkscape:window-height="1017"
     inkscape:window-x="-8"
     inkscape:window-y="-8"
     inkscape:window-maximized="1"
     inkscape:current-layer="layer1" />
  <defs
     id="defs62769" />
  <g
     inkscape:label="Layer 1"
     inkscape:groupmode="layer"
     id="layer1"
     transform="translate(-1.2018129,-0.88494106)">
    <g
       id="g67910"
       transform="matrix(0.23989963,0,0,0.23902152,-5.949957,-3.6166539)">
      <path
         style="fill:#ffffff;fill-opacity:1;stroke-width:0.264583"
         d="m 41.838695,156.1574 c -1.7477,-0.91301 -3.00051,-2.50111 -3.38412,-4.28982 -0.40833,-1.904 -0.40833,-121.917695 0,-123.821696 0.39274,-1.831274 1.63935,-3.409054 3.39834,-4.301127 l 1.43468,-0.727604 h 36.35329 37.411625 c 9.66822,9.824206 11.46077,11.938025 20.78296,21.360042 0.43627,1.002651 0.48847,105.463185 0.0537,107.490385 -0.38361,1.78871 -1.63642,3.37681 -3.38412,4.28982 l -1.41444,0.73891 H 88.171885 43.253135 Z"
         id="path62788-8"
         sodipodi:nodetypes="ssssccccsscccs" />
      <path
         style="fill:#444b54;fill-opacity:1;stroke-width:0.264583"
         d="m 41.838695,156.1574 c -1.7477,-0.91301 -3.00051,-2.50111 -3.38412,-4.28982 -0.40833,-1.904 -0.40833,-121.917695 0,-123.821696 0.39274,-1.831274 1.63935,-3.409054 3.39834,-4.301127 l 1.43468,-0.727604 H 79.640889 117.0525 c 5.49288,5.281523 9.92692,9.506159 15.43708,14.76886 2.7649,2.6401 5.17054,5.129882 5.34588,5.532849 0.43627,1.002651 0.48847,106.521518 0.0537,108.548718 -0.38361,1.78871 -1.63642,3.37681 -3.38412,4.28982 l -1.41444,0.73891 H 88.171879 43.253135 Z m 88.296995,-5.88607 c 1.50572,-0.57248 1.41034,5.11156 1.41944,-50.977201 l 0.008,-50.855319 c -4.73247,-0.06912 -9.46525,-0.109288 -14.19799,-0.15395 -5.53698,-0.278373 -5.24852,-6.330611 -5.32938,-12.989687 l -0.0805,-5.933848 -33.434191,0.06906 -32.375857,0.06906 -0.68274,0.641433 -0.68274,0.641433 0.008,59.154396 c 0.007,50.069153 0.0717,59.237753 0.35473,59.610353 0.19048,0.25078 0.63318,0.57065 0.98378,0.71083 0.91379,0.36537 83.048318,0.37852 84.008558,0.0134 z m -77.332995,-24.3812 c -1.50798,-0.72905 -1.40018,-2.92693 0.18244,-3.71997 1.41802,-0.71055 34.037394,-0.71055 35.435574,0 1.60621,0.81629 1.67583,3.02566 0.11771,3.73558 -0.88778,0.4045 -34.897484,0.38965 -35.735724,-0.0156 z m -0.52535,-15.18304 c -0.56729,-0.56729 -0.65492,-0.8432 -0.52519,-1.65365 0.33139,-2.07026 -3.03041,-1.89879 37.228034,-1.89879 h 35.939261 l 0.69205,0.59531 c 0.91456,0.78672 0.96918,2.08458 0.12553,2.98262 l -0.61573,0.6554 H 89.039779 52.958245 Z m 0.79941,-14.133551 c -1.79971,-0.72627 -1.8119,-3.33262 -0.0185,-3.9578 1.39173,-0.48516 71.194585,-0.37768 72.139755,0.11108 1.52262,0.78738 1.46743,3.07455 -0.0913,3.78476 -0.84798,0.38638 -71.076345,0.44679 -72.029935,0.062 z m -0.33815,-14.888935 c -1.26317,-0.644496 -1.3759,-2.725007 -0.18975,-3.502199 0.73865,-0.483984 72.023595,-0.616622 72.922245,-0.135684 1.18885,0.636257 1.04815,3.009135 -0.21863,3.687096 -0.82046,0.439094 -71.651025,0.391022 -72.513865,-0.04921 z M 52.277345,66.52167 c -0.76486,-0.764857 -0.74361,-2.217171 0.044,-3.004947 0.52738,-0.527515 34.914284,-0.780322 36.156414,-0.265816 0.85254,0.353132 1.37764,1.492758 1.13439,2.461948 -0.38739,1.543489 0.29752,1.489712 -18.973634,1.489712 H 52.958285 Z M 117.27604,31.397003 v 5.540786 c 0,7.669451 0.0704,5.625588 5.53252,5.641758 l 5.6648,0.01677 c -4.0251,-3.564584 -7.99864,-8.131685 -11.19732,-11.199314 z"
         id="path62788"
         sodipodi:nodetypes="ssssccccssscccscccccccccccssccssssssssscsscccscsssccssssssccssscccsscc" />
    </g>
  </g>
</svg>
