<?xml version="1.0" encoding="UTF-8" standalone="no"?>
<!-- Created with Inkscape (http://www.inkscape.org/) -->

<svg
   width="20"
   height="20"
   viewBox="0 0 5.2916669 5.2916666"
   version="1.1"
   id="svg62772"
   inkscape:version="1.1.1 (3bf5ae0d25, 2021-09-20)"
   sodipodi:docname="document.svg"
   xmlns:inkscape="http://www.inkscape.org/namespaces/inkscape"
   xmlns:sodipodi="http://sodipodi.sourceforge.net/DTD/sodipodi-0.dtd"
   xmlns="http://www.w3.org/2000/svg"
   xmlns:svg="http://www.w3.org/2000/svg">
  <sodipodi:namedview
     id="namedview62774"
     pagecolor="#ffffff"
     bordercolor="#666666"
     borderopacity="1.0"
     inkscape:pageshadow="2"
     inkscape:pageopacity="0.0"
     inkscape:pagecheckerboard="0"
     inkscape:document-units="mm"
     showgrid="true"
     units="px"
     inkscape:zoom="67.084829"
     inkscape:cx="7.6544877"
     inkscape:cy="5.1651022"
     inkscape:window-width="2560"
     inkscape:window-height="1017"
     inkscape:window-x="-8"
     inkscape:window-y="-8"
     inkscape:window-maximized="1"
     inkscape:current-layer="layer1"
     width="20px">
    <inkscape:grid
       type="xygrid"
       id="grid931" />
  </sodipodi:namedview>
  <defs
     id="defs62769" />
  <g
     inkscape:label="Layer 1"
     inkscape:groupmode="layer"
     id="layer1"
     transform="translate(-1.2018129,-0.88494106)">
    <g
       id="g67910"
       transform="matrix(0.03649557,0,0,0.03520035,0.34697267,0.35783964)">
      <path
         style="fill:#ffffff;fill-opacity:1;stroke-width:0.264583"
         d="m 41.838695,156.1574 c -1.7477,-0.91301 -3.00051,-2.50111 -3.38412,-4.28982 -0.40833,-1.904 -0.40833,-121.917695 0,-123.821696 0.39274,-1.831274 1.63935,-3.409054 3.39834,-4.301127 l 1.43468,-0.727604 h 36.35329 37.411625 c 9.66822,9.824206 11.46077,11.938025 20.78296,21.360042 0.43627,1.002651 0.48847,105.463185 0.0537,107.490385 -0.38361,1.78871 -1.63642,3.37681 -3.38412,4.28982 l -1.41444,0.73891 H 88.171885 43.253135 Z"
         id="path62788-8"
         sodipodi:nodetypes="ssssccccsscccs" />
      <path
         style="fill:#444b54;fill-opacity:1;stroke-width:0.264583"
         d="m 45.172338,157.78777 c 0,0 -6.991207,0.003 -7.041968,-7.37677 C 37.9226,120.20528 37.3693,60.070096 37.806166,30.398822 37.9226,22.49082 45.172338,22.49082 45.311098,22.288176 c 21.610455,0.202644 52.271414,0.202644 72.358622,0.202644 7.24974,7.516498 14.49948,15.032995 22.0029,22.956891 -0.25368,29.65859 -0.25368,74.757569 0.0537,104.963289 0.0751,7.38324 -7.55712,7.37677 -7.55712,7.37677 -29.13198,-0.0454 -72.497385,0 -86.996862,0 z m 86.996862,-7.5165 V 52.556809 c -4.73247,-0.06912 -2.517,0.04466 -7.24974,0 -14.49948,0 -14.49948,0 -14.49948,-15.032994 V 30.007318 H 45.172338 c 0.03519,40.745561 0,82.681472 -0.02988,119.539742 27.392682,0.6609 69.322992,0.72349 87.026742,0.72421 z M 52.802695,125.89013 c -1.50798,-0.72905 -1.40018,-2.92693 0.18244,-3.71997 1.41802,-0.71055 34.037394,-0.71055 35.435574,0 1.60621,0.81629 1.67583,3.02566 0.11771,3.73558 -0.88778,0.4045 -34.897484,0.38965 -35.735724,-0.0156 z m -0.52535,-15.18304 c -0.56729,-0.56729 -0.65492,-0.8432 -0.52519,-1.65365 0.33139,-2.07026 -3.03041,-1.89879 37.228034,-1.89879 h 35.939261 l 0.69205,0.59531 c 0.91456,0.78672 0.96918,2.08458 0.12553,2.98262 l -0.61573,0.6554 H 89.039779 52.958245 Z m 0.79941,-14.133551 c -1.79971,-0.72627 -1.8119,-3.33262 -0.0185,-3.9578 1.39173,-0.48516 71.194585,-0.37768 72.139755,0.11108 1.52262,0.78738 1.46743,3.07455 -0.0913,3.78476 -0.84798,0.38638 -71.076345,0.44679 -72.029935,0.062 z m -0.33815,-14.888935 c -1.26317,-0.644496 -1.3759,-2.725007 -0.18975,-3.502199 0.73865,-0.483984 72.023595,-0.616622 72.922245,-0.135684 1.18885,0.636257 1.04815,3.009135 -0.21863,3.687096 -0.82046,0.439094 -71.651025,0.391022 -72.513865,-0.04921 z M 52.277345,66.52167 c -0.76486,-0.764857 -0.74361,-2.217171 0.044,-3.004947 0.52738,-0.527515 34.914284,-0.780322 36.156414,-0.265816 0.85254,0.353132 1.37764,1.492758 1.13439,2.461948 -0.38739,1.543489 0.29752,1.489712 -18.973634,1.489712 h -17.68023 z m 65.392375,-36.514352 0.14666,7.714784 c 0.14577,7.667961 -0.14666,7.43068 7.22453,7.373503 l 7.12829,-0.05529 C 128.1441,41.475728 120.8684,33.074947 117.66972,30.007318 Z"
         id="path62788"
         sodipodi:nodetypes="csscccsccccccccccssssssscscsscccscsssccscssssccssscccsscc" />
    </g>
  </g>
</svg>
