<?xml version="1.0" encoding="UTF-8" standalone="no"?>
<!-- Created with Inkscape (http://www.inkscape.org/) -->

<svg
   xmlns:dc="http://purl.org/dc/elements/1.1/"
   xmlns:cc="http://creativecommons.org/ns#"
   xmlns:rdf="http://www.w3.org/1999/02/22-rdf-syntax-ns#"
   xmlns:svg="http://www.w3.org/2000/svg"
   xmlns="http://www.w3.org/2000/svg"
   xmlns:sodipodi="http://sodipodi.sourceforge.net/DTD/sodipodi-0.dtd"
   xmlns:inkscape="http://www.inkscape.org/namespaces/inkscape"
   width="20"
   height="20"
   viewBox="0 0 5.2916669 5.2916666"
   version="1.1"
   id="svg62772"
   inkscape:version="0.92.3 (2405546, 2018-03-11)"
   sodipodi:docname="document-tbl.svg">
  <metadata
     id="metadata10">
    <rdf:RDF>
      <cc:Work
         rdf:about="">
        <dc:format>image/svg+xml</dc:format>
        <dc:type
           rdf:resource="http://purl.org/dc/dcmitype/StillImage" />
        <dc:title></dc:title>
      </cc:Work>
    </rdf:RDF>
  </metadata>
  <sodipodi:namedview
     id="namedview62774"
     pagecolor="#ffffff"
     bordercolor="#666666"
     borderopacity="1.0"
     inkscape:pageshadow="2"
     inkscape:pageopacity="0.0"
     inkscape:pagecheckerboard="0"
     inkscape:document-units="mm"
     showgrid="true"
     units="px"
     inkscape:zoom="67.084829"
     inkscape:cx="5.1427425"
     inkscape:cy="9.5028937"
     inkscape:window-width="2560"
     inkscape:window-height="1013"
     inkscape:window-x="0"
     inkscape:window-y="0"
     inkscape:window-maximized="1"
     inkscape:current-layer="g67910"
     width="20px">
    <inkscape:grid
       type="xygrid"
       id="grid931" />
  </sodipodi:namedview>
  <defs
     id="defs62769" />
  <g
     inkscape:label="Layer 1"
     inkscape:groupmode="layer"
     id="layer1"
     transform="translate(-1.2018129,-0.88494106)">
    <g
       id="g67910"
       transform="matrix(0.03649557,0,0,0.03520035,0.34697267,0.35783964)">
      <path
         style="fill:#ffffff;fill-opacity:1;stroke-width:0.264583"
         d="m 41.838695,156.1574 c -1.7477,-0.91301 -3.00051,-2.50111 -3.38412,-4.28982 -0.40833,-1.904 -0.40833,-121.917695 0,-123.821696 0.39274,-1.831274 1.63935,-3.409054 3.39834,-4.301127 l 1.43468,-0.727604 h 36.35329 37.411625 c 9.66822,9.824206 11.46077,11.938025 20.78296,21.360042 0.43627,1.002651 0.48847,105.463185 0.0537,107.490385 -0.38361,1.78871 -1.63642,3.37681 -3.38412,4.28982 l -1.41444,0.73891 H 88.171885 43.253135 Z"
         id="path62788-8"
         sodipodi:nodetypes="ssssccccsscccs" />
      <path
         style="fill:#444b54;fill-opacity:1;stroke-width:0.26458299"
         d="m 45.172338,157.78777 c 0,0 -6.991207,0.003 -7.041968,-7.37677 C 37.9226,120.20528 37.3693,60.070096 37.806166,30.398822 37.9226,22.49082 45.172338,22.49082 45.311098,22.288176 c 21.610455,0.202644 52.271414,0.202644 72.358622,0.202644 7.24974,7.516498 14.49948,15.032995 22.0029,22.956891 -0.25368,29.65859 -0.25368,74.757569 0.0537,104.963289 0.0751,7.38324 -7.55712,7.37677 -7.55712,7.37677 -29.13198,-0.0454 -72.497385,0 -86.996862,0 z m 86.996862,-7.5165 V 52.556809 c -4.73247,-0.06912 -2.517,0.04466 -7.24974,0 -14.49948,0 -14.49948,0 -14.49948,-15.032994 V 30.007318 H 45.172338 c 0.03519,40.745561 0,82.681472 -0.02988,119.539742 27.392682,0.6609 69.322992,0.72349 87.026742,0.72421 z m -14.49948,-120.263952 0.14666,7.714784 c 0.14577,7.667961 -0.14666,7.43068 7.22453,7.373503 l 7.12829,-0.05529 C 128.1441,41.475728 120.8684,33.074947 117.66972,30.007318 Z"
         id="path62788"
         sodipodi:nodetypes="csscccscccccccccccsscc"
         inkscape:connector-curvature="0" />
      <path
         style="fill:none;stroke:#444b54;stroke-width:7.393538;stroke-linecap:butt;stroke-linejoin:miter;stroke-miterlimit:4;stroke-dasharray:none;stroke-opacity:1"
         d="M 59.671815,67.589803 H 117.66972 V 82.622797 112.68879 H 59.671815 Z"
         id="path817"
         inkscape:connector-curvature="0"
         sodipodi:nodetypes="cccccc" />
      <path
         style="fill:none;stroke:#444b54;stroke-width:7.38191271px;stroke-linecap:butt;stroke-linejoin:miter;stroke-opacity:1"
         d="M 59.671814,82.622798 H 117.66972 Z"
         id="path819"
         inkscape:connector-curvature="0"
         sodipodi:nodetypes="ccc" />
    </g>
  </g>
</svg>
